<svg xmlns="http://www.w3.org/2000/svg" xmlns:xlink="http://www.w3.org/1999/xlink" version="1.1" x="0px" y="0px" viewBox="0 0 1000 1000" enable-background="new 0 0 1000 1000" xml:space="preserve">
<g><path d="M279.6,990c-2.4,0-4.9-0.6-7.1-1.9L37.7,854.8c-4.5-2.6-7.3-7.3-7.3-12.5V542.7c0-5.5,3.2-10.6,8.2-13l236.5-113c4.1-2,8.8-1.9,12.8,0.2l218.8,113c4.8,2.5,7.8,7.4,7.8,12.8v299.5c0,5-2.6,9.7-7,12.3L287.1,987.9C284.8,989.3,282.2,990,279.6,990z M59.2,833.8l220.2,125l206.2-124.8V551.5L281,445.8l-221.8,106V833.8z"/><path d="M279.6,990c-8,0-14.4-6.4-14.4-14.4l0-302.2c0-5.1,2.7-9.8,7.1-12.4l220.4-130.7c6.8-4,15.7-1.8,19.7,5.1c4.1,6.8,1.8,15.7-5,19.7L294,681.6v294C294,983.6,287.6,990,279.6,990z"/><path d="M279.6,687.8c-2.4,0-4.8-0.6-7-1.8L37.8,555.3c-7-3.9-9.5-12.7-5.6-19.6c3.9-7,12.7-9.4,19.6-5.6l234.8,130.7c7,3.9,9.5,12.7,5.6,19.6C289.6,685.2,284.7,687.8,279.6,687.8z"/><path d="M162.2,707.9c-8,0-14.4-6.4-14.4-14.4v-85.4c0-5.3,2.9-10.2,7.6-12.7L383,473.1c7-3.8,15.8-1.2,19.5,5.9c3.8,7,1.1,15.7-5.9,19.5l-220,118.2v76.8C176.6,701.4,170.1,707.9,162.2,707.9z"/><path d="M734.8,990c-2.4,0-4.9-0.6-7.1-1.9L492.9,854.8c-4.5-2.6-7.3-7.3-7.3-12.5V542.7c0-5.5,3.2-10.6,8.2-13l236.5-113c4.1-2,8.8-1.9,12.8,0.2l218.7,113c4.8,2.5,7.8,7.4,7.8,12.8v299.5c0,5-2.6,9.7-7,12.3L742.3,987.9C740,989.3,737.4,990,734.8,990z M514.4,833.8l220.2,125l206.2-124.8V551.5L736.2,445.8l-221.8,106V833.8z"/><path d="M734.8,990c-8,0-14.4-6.4-14.4-14.4V673.4c0-5.1,2.7-9.8,7.1-12.4l220.4-130.7c6.8-4,15.7-1.8,19.7,5.1c4.1,6.8,1.8,15.7-5,19.7L749.2,681.6v294C749.2,983.6,742.8,990,734.8,990z"/><path d="M734.8,687.8c-2.4,0-4.8-0.6-7-1.8L493,555.3c-7-3.9-9.5-12.7-5.6-19.6c3.9-7,12.6-9.4,19.6-5.6l234.8,130.7c7,3.9,9.5,12.7,5.6,19.6C744.8,685.2,739.9,687.8,734.8,687.8z"/><path d="M617.4,707.9c-8,0-14.4-6.4-14.4-14.4v-85.4c0-5.3,2.9-10.2,7.6-12.7l227.6-122.3c7-3.8,15.8-1.2,19.5,5.9c3.8,7,1.1,15.7-5.9,19.5l-220,118.2v76.8C631.8,701.4,625.4,707.9,617.4,707.9z"/><path d="M500.3,557.1c-2.3,0-4.5-0.5-6.6-1.6l-219-113c-4.8-2.5-7.8-7.4-7.8-12.8V130.2c0-5.5,3.2-10.6,8.1-13L494,11.4c3.9-1.8,8.3-1.9,12.2-0.2L742.4,117c5.2,2.3,8.5,7.5,8.5,13.2v299.6c0,5.5-3.2,10.6-8.2,13l-236.2,113C504.5,556.6,502.4,557.1,500.3,557.1z M295.7,420.9l204.9,105.7l221.6-106V139.5L500.5,40.3l-204.8,98.9V420.9z"/><path d="M500.3,557.1c-8,0-14.4-6.4-14.4-14.4V240.5c0-5.6,3.2-10.7,8.3-13.1l236.2-110.4c7.1-3.3,15.8-0.3,19.2,7c3.4,7.2,0.3,15.8-7,19.2L514.7,249.7v293C514.7,550.7,508.2,557.1,500.3,557.1z"/><path d="M500.3,254.9c-2.2,0-4.4-0.5-6.5-1.5L274.8,143c-7.1-3.6-10-12.2-6.4-19.4c3.6-7.1,12.4-10,19.3-6.4l219,110.4c7.1,3.6,10,12.2,6.4,19.4C510.6,252,505.5,254.9,500.3,254.9z"/><path d="M390.8,275c-8,0-14.4-6.4-14.4-14.4v-75.2c0-5.4,3-10.4,7.9-12.9L603.9,60.9c7.1-3.6,15.8-0.8,19.4,6.3c3.6,7.1,0.8,15.8-6.3,19.4L405.2,194.2v66.4C405.2,268.5,398.7,275,390.8,275z"/></g>
</svg>